# xmcd
#
# Track frame offsets:
#	150
#	11966
#	31106
#	54993
#	68701
#	83538
#	103901
#	121632
#	143095
#	157156
#	171940
#	191257
#	210346
#	229495
#
# Disc length: 3346 seconds
#
# Revision: 0
# Processed by: cddbd v1.5.2PL0 Copyright (c) Steve Scherf et al.
# Submitted via: EasyCDDAExtractor 16.0.6.1
#
DISCID=b30d100e
DTITLE=Συλλογικός δίσκος - Μουσικές της Ιωνικής Γης-Χρ. Τσιαμούλης
DYEAR=1997
DGENRE=Παραδοσιακή
TTITLE0=Άνευ ερμηνευτού - Αντικρυστός χορός [οργανικό]
TTITLE1=Τσιαμούλης Χρίστος - Ο γεμιτζής [Αϊβαλί]
TTITLE2=Τσιαμούλης Χρίστος - Μιά κόρη ετραγούδησε [Προποντίδα]
TTITLE3=Παπαδοπούλου Κατερίνα - Σε δυό περιβολάκια [Προποντίδα]
TTITLE4=Παπαδοπούλου Κατερίνα - Να τραγουδήσω, να χαρώ [Αν. Αιγαίο]
TTITLE5=Άνευ ερμηνευτού - Ταξίμι με ούτι
TTITLE6=Τσιαμούλης Χρίστος - Άναψε το φαναράκι [Προποντίδα]
TTITLE7=Τσιαμούλης Χρίστος - Εκατό φορές το είπα [Αν. Αιγαίο]
TTITLE8=Παπαδοπούλου Κατερίνα - 'Νας Κωνσταντής καυχήστηκε [Προποντίδα]
TTITLE9=Χορωδία - Πάγω στης Προύσας τα βουνά [Καππαδοκία]
TTITLE10=Παπαδοπούλου Κατερίνα - Το γεμιτζάκι [Προποντίδα]
TTITLE11=Παπαδοπούλου Κατερίνα - Πάνω σε πέντε πύργους [Προποντίδα]
TTITLE12=Τσιαμούλης Χρίστος-χορωδία - Μάνα μ' ήρθεν η άνοιξη [Καππαδοκία]
TTITLE13=Τσιαμούλης Χρίστος-χορωδία - Εγώ 'μαι του ψαρά ο γιος [Προποντίδα]
EXTD=
EXTT0=
EXTT1=
EXTT2=
EXTT3=
EXTT4=
EXTT5=
EXTT6=
EXTT7=
EXTT8=
EXTT9=
EXTT10=
EXTT11=
EXTT12=
EXTT13=
PLAYORDER=
